<svg width="19" height="18" viewBox="0 0 19 18" fill="none" xmlns="http://www.w3.org/2000/svg">
<path d="M7.92188 4.38232H15.9219" stroke="#262626" stroke-width="2.00231" stroke-linecap="round" stroke-linejoin="round"/>
<path d="M7.92188 9.11011H15.9219" stroke="#262626" stroke-width="2.00231" stroke-linecap="round" stroke-linejoin="round"/>
<path d="M7.92188 13.8379H15.9219" stroke="#262626" stroke-width="2.00231" stroke-linecap="round" stroke-linejoin="round"/>
<path d="M3.42188 5.80054H5.42188" stroke="#262626" stroke-width="1.00116" stroke-linecap="round" stroke-linejoin="round"/>
<path d="M4.42191 6.27343C4.28931 6.27343 4.16213 6.22362 4.06836 6.13496C3.97459 6.0463 3.92191 5.92604 3.92191 5.80066V3.51714L3.64591 3.64763C3.52736 3.7038 3.39007 3.71314 3.26423 3.67359C3.1384 3.63405 3.03433 3.54886 2.97491 3.43677C2.85091 3.20321 2.95191 3.13041 3.19891 3.0141L4.19891 2.54133C4.27511 2.50543 4.35973 2.48851 4.44477 2.49219C4.52981 2.49587 4.61244 2.52002 4.68485 2.56235C4.75726 2.60468 4.81703 2.66378 4.85852 2.73407C4.90001 2.80436 4.92183 2.8835 4.92191 2.96399V5.80066C4.92191 5.92604 4.86924 6.0463 4.77547 6.13496C4.6817 6.22362 4.55452 6.27343 4.42191 6.27343Z" fill="#262626"/>
<path d="M5.42188 10.5284H3.42188C3.42188 10.3072 5.27188 9.51099 5.27188 8.41604C5.22965 8.22026 5.12023 8.04315 4.9606 7.91222C4.80097 7.78129 4.60008 7.70389 4.38913 7.69203C4.17819 7.68017 3.96901 7.73452 3.7941 7.84664C3.61919 7.95875 3.48833 8.12236 3.42188 8.31203" stroke="#262626" stroke-width="1.00116" stroke-linecap="round" stroke-linejoin="round"/>
<path d="M3.42188 14.6379C3.48824 14.8276 3.61901 14.9912 3.79385 15.1034C3.96869 15.2156 4.17781 15.27 4.38874 15.2583C4.59967 15.2465 4.80059 15.1692 4.96029 15.0384C5.11999 14.9076 5.22952 14.7306 5.27188 14.5348C5.28294 14.3686 5.22732 14.2045 5.11611 14.0754C5.0049 13.9462 4.84627 13.8614 4.67188 13.8379C4.8473 13.8171 5.00749 13.7331 5.11921 13.6036C5.23092 13.474 5.28559 13.3087 5.27188 13.142C5.22952 12.9463 5.11999 12.7693 4.96029 12.6384C4.80059 12.5076 4.59967 12.4303 4.38874 12.4186C4.17781 12.4068 3.96869 12.4613 3.79385 12.5734C3.61901 12.6856 3.48824 12.8493 3.42188 13.039" stroke="#262626" stroke-width="1.00116" stroke-linecap="round" stroke-linejoin="round"/>
</svg>
