<svg width="19" height="18" viewBox="0 0 19 18" fill="none" xmlns="http://www.w3.org/2000/svg">
<path d="M7.92969 7.21899L11.9297 11.0012" stroke="#262626" stroke-width="2.00231" stroke-linecap="round" stroke-linejoin="round"/>
<path fill-rule="evenodd" clip-rule="evenodd" d="M9.82965 4.92792C10.4634 5.48952 10.8518 6.2551 10.9184 7.07394C10.985 7.89277 10.7251 8.70552 10.1897 9.35218C9.50596 9.85999 8.64584 10.1071 7.77893 10.0448C6.91203 9.98249 6.1013 9.61526 5.50665 9.01556C4.11465 7.69178 2.96465 6.65167 5.14665 4.58752C7.32865 2.52337 8.42965 3.61171 9.82965 4.92792Z" stroke="#262626" stroke-width="2.00231" stroke-linecap="round" stroke-linejoin="round"/>
<path fill-rule="evenodd" clip-rule="evenodd" d="M14.3516 9.20471C13.7577 8.60549 12.948 8.23822 12.082 8.17522C11.216 8.11222 10.3565 8.35805 9.67261 8.86431C9.1372 9.51096 8.87721 10.3237 8.94384 11.1425C9.01047 11.9614 9.39888 12.727 10.0326 13.2886C11.4246 14.6048 12.5326 15.6922 14.7116 13.629C16.8906 11.5658 15.7436 10.5285 14.3516 9.20471Z" stroke="#262626" stroke-width="2.00231" stroke-linecap="round" stroke-linejoin="round"/>
</svg>
