<svg width="19" height="18" viewBox="0 0 19 18" fill="none" xmlns="http://www.w3.org/2000/svg">
<path d="M5.96875 4.38232H10.4688C10.7971 4.38232 11.1221 4.44347 11.4255 4.56226C11.7288 4.68106 12.0044 4.85518 12.2365 5.07469C12.4687 5.2942 12.6528 5.55479 12.7784 5.84159C12.9041 6.12839 12.9688 6.43578 12.9688 6.74621C12.9688 7.05664 12.9041 7.36403 12.7784 7.65083C12.6528 7.93763 12.4687 8.19823 12.2365 8.41774C12.0044 8.63724 11.7288 8.81137 11.4255 8.93016C11.1221 9.04896 10.7971 9.1101 10.4688 9.1101H5.96875V4.38232Z" stroke="#262626" stroke-width="2.00231" stroke-linecap="round" stroke-linejoin="round"/>
<path d="M5.96875 9.11011H11.4688C12.1318 9.11011 12.7677 9.35916 13.2365 9.80247C13.7054 10.2458 13.9688 10.8471 13.9688 11.474C13.9688 12.1009 13.7054 12.7022 13.2365 13.1455C12.7677 13.5888 12.1318 13.8379 11.4688 13.8379H5.96875V9.11011Z" stroke="#262626" stroke-width="2.00231" stroke-linecap="round" stroke-linejoin="round"/>
</svg>
